<mxfile host="Electron" modified="2023-11-17T07:27:43.031Z" agent="Mozilla/5.0 (Windows NT 10.0; Win64; x64) AppleWebKit/537.36 (KHTML, like Gecko) draw.io/22.1.2 Chrome/114.0.5735.289 Electron/25.9.4 Safari/537.36" etag="AEt7FG9LRIc6lHl8vL2P" version="22.1.2" type="device">
  <diagram name="Page-1" id="e7e014a7-5840-1c2e-5031-d8a46d1fe8dd">
    <mxGraphModel dx="1417" dy="820" grid="1" gridSize="10" guides="1" tooltips="1" connect="1" arrows="1" fold="1" page="1" pageScale="1" pageWidth="1169" pageHeight="826" background="none" math="0" shadow="0">
      <root>
        <mxCell id="0" />
        <mxCell id="1" parent="0" />
        <mxCell id="6" value="" style="edgeStyle=elbowEdgeStyle;elbow=horizontal;verticalAlign=bottom;endArrow=open;strokeColor=#FF0000;endFill=1;rounded=0;shape=link;exitX=0.042;exitY=0.497;exitDx=0;exitDy=0;exitPerimeter=0;entryX=1.001;entryY=0.019;entryDx=0;entryDy=0;entryPerimeter=0;" parent="1" source="5" target="2" edge="1">
          <mxGeometry x="600" y="150" as="geometry">
            <mxPoint x="840" y="120" as="targetPoint" />
            <mxPoint x="980" y="120.00000000000011" as="sourcePoint" />
          </mxGeometry>
        </mxCell>
        <mxCell id="2" value="Aplicație sesizări" style="swimlane;whiteSpace=wrap;startSize=23;" parent="1" vertex="1">
          <mxGeometry x="500" y="110" width="340" height="570" as="geometry">
            <mxRectangle x="500" y="110" width="140" height="30" as="alternateBounds" />
          </mxGeometry>
        </mxCell>
        <mxCell id="7" value="Autentificare" style="" parent="2" vertex="1">
          <mxGeometry x="115" y="40" width="110" height="50" as="geometry" />
        </mxCell>
        <mxCell id="9" value="" style="endArrow=open;strokeColor=#FF0000;endFill=1;rounded=0;dashed=1;dashPattern=8 8;entryX=0.727;entryY=0;entryDx=0;entryDy=0;entryPerimeter=0;" parent="2" source="7" target="8" edge="1">
          <mxGeometry relative="1" as="geometry">
            <mxPoint x="170" y="110" as="targetPoint" />
          </mxGeometry>
        </mxCell>
        <mxCell id="8" value="Selectare tip&#xa;șablon" style="" parent="2" vertex="1">
          <mxGeometry x="90" y="120" width="110" height="50" as="geometry" />
        </mxCell>
        <mxCell id="10" value="Completare date" style="" parent="2" vertex="1">
          <mxGeometry x="40" y="190" width="110" height="50" as="geometry" />
        </mxCell>
        <mxCell id="11" value="" style="endArrow=open;strokeColor=#FF0000;endFill=1;rounded=0;dashed=1;" parent="2" source="8" target="10" edge="1">
          <mxGeometry relative="1" as="geometry" />
        </mxCell>
        <mxCell id="tgFyxtrxb2ASFe7bqLmh-56" value="Generare text&#xa;petiție" style="" parent="2" vertex="1">
          <mxGeometry x="90" y="270" width="110" height="50" as="geometry" />
        </mxCell>
        <mxCell id="tgFyxtrxb2ASFe7bqLmh-57" value="" style="endArrow=open;strokeColor=#FF0000;endFill=1;rounded=0;dashed=1;exitX=0.75;exitY=1;exitDx=0;exitDy=0;dashPattern=12 12;entryX=0.755;entryY=0;entryDx=0;entryDy=0;entryPerimeter=0;" parent="2" source="8" target="tgFyxtrxb2ASFe7bqLmh-56" edge="1">
          <mxGeometry relative="1" as="geometry">
            <mxPoint x="141" y="200" as="sourcePoint" />
            <mxPoint x="173" y="310" as="targetPoint" />
          </mxGeometry>
        </mxCell>
        <mxCell id="tgFyxtrxb2ASFe7bqLmh-58" value="" style="endArrow=open;strokeColor=#FF0000;endFill=1;rounded=0;dashed=1;entryX=0.5;entryY=0;entryDx=0;entryDy=0;exitX=0.705;exitY=1.06;exitDx=0;exitDy=0;exitPerimeter=0;" parent="2" source="10" target="tgFyxtrxb2ASFe7bqLmh-56" edge="1">
          <mxGeometry relative="1" as="geometry">
            <mxPoint x="141" y="200" as="sourcePoint" />
            <mxPoint x="119" y="240" as="targetPoint" />
          </mxGeometry>
        </mxCell>
        <mxCell id="tgFyxtrxb2ASFe7bqLmh-60" value="Trimitere&#xa;e-mail" style="" parent="2" vertex="1">
          <mxGeometry x="220" y="270" width="110" height="50" as="geometry" />
        </mxCell>
        <mxCell id="tgFyxtrxb2ASFe7bqLmh-61" value="" style="endArrow=open;strokeColor=#FF0000;endFill=1;rounded=0;dashed=1;entryX=0;entryY=0.5;entryDx=0;entryDy=0;exitX=1;exitY=0.5;exitDx=0;exitDy=0;" parent="2" source="tgFyxtrxb2ASFe7bqLmh-56" target="tgFyxtrxb2ASFe7bqLmh-60" edge="1">
          <mxGeometry relative="1" as="geometry">
            <mxPoint x="128" y="253" as="sourcePoint" />
            <mxPoint x="155" y="280" as="targetPoint" />
          </mxGeometry>
        </mxCell>
        <mxCell id="tgFyxtrxb2ASFe7bqLmh-63" value="Feedback aplicație" style="" parent="2" vertex="1">
          <mxGeometry x="30" y="390" width="110" height="50" as="geometry" />
        </mxCell>
        <mxCell id="tgFyxtrxb2ASFe7bqLmh-69" value="Statistici" style="" parent="2" vertex="1">
          <mxGeometry x="210" y="430" width="110" height="50" as="geometry" />
        </mxCell>
        <mxCell id="tgFyxtrxb2ASFe7bqLmh-77" value="" style="edgeStyle=elbowEdgeStyle;elbow=horizontal;strokeColor=#BD7000;endArrow=open;endFill=1;rounded=0;fillColor=#f0a30a;entryX=0.553;entryY=-0.09;entryDx=0;entryDy=0;entryPerimeter=0;" parent="2" target="tgFyxtrxb2ASFe7bqLmh-60" edge="1">
          <mxGeometry width="100" height="100" relative="1" as="geometry">
            <mxPoint x="454" y="208" as="sourcePoint" />
            <mxPoint x="280" y="240" as="targetPoint" />
            <Array as="points">
              <mxPoint x="280" y="298" />
            </Array>
          </mxGeometry>
        </mxCell>
        <mxCell id="tgFyxtrxb2ASFe7bqLmh-78" value="Panou control" style="" parent="2" vertex="1">
          <mxGeometry x="150" y="500" width="110" height="50" as="geometry" />
        </mxCell>
        <mxCell id="tgFyxtrxb2ASFe7bqLmh-79" value="" style="edgeStyle=elbowEdgeStyle;elbow=horizontal;strokeColor=#2D7600;endArrow=open;endFill=1;rounded=0;fillColor=#60a917;" parent="2" edge="1">
          <mxGeometry width="100" height="100" relative="1" as="geometry">
            <mxPoint x="560" y="370" as="sourcePoint" />
            <mxPoint x="260" y="525" as="targetPoint" />
            <Array as="points">
              <mxPoint x="560" y="520" />
            </Array>
          </mxGeometry>
        </mxCell>
        <mxCell id="tgFyxtrxb2ASFe7bqLmh-82" value="Vizualizare ghid" style="" parent="2" vertex="1">
          <mxGeometry x="20" y="460" width="110" height="50" as="geometry" />
        </mxCell>
        <mxCell id="tgFyxtrxb2ASFe7bqLmh-48" value="&lt;b&gt;&lt;font color=&quot;#a9c4eb&quot;&gt;Utilizator&lt;/font&gt;&lt;/b&gt;" style="shape=umlActor;html=1;verticalLabelPosition=bottom;verticalAlign=top;align=center;" parent="1" vertex="1">
          <mxGeometry x="270" y="150" width="30" height="60" as="geometry" />
        </mxCell>
        <mxCell id="5" value="" style="ellipse;shape=startState;fillColor=#000000;strokeColor=#ff0000;" parent="1" vertex="1">
          <mxGeometry x="980" y="130" width="137.5" height="120" as="geometry" />
        </mxCell>
        <mxCell id="tgFyxtrxb2ASFe7bqLmh-49" value="Sistem" style="shape=umlActor;html=1;verticalLabelPosition=bottom;verticalAlign=top;align=center;" parent="1" vertex="1">
          <mxGeometry x="1033.75" y="150" width="30" height="60" as="geometry" />
        </mxCell>
        <mxCell id="12" value="" style="edgeStyle=elbowEdgeStyle;elbow=horizontal;strokeColor=#006EAF;endArrow=open;endFill=1;rounded=0;entryX=0;entryY=0.5;entryDx=0;entryDy=0;fillColor=#1ba1e2;" parent="1" target="7" edge="1">
          <mxGeometry width="100" height="100" relative="1" as="geometry">
            <mxPoint x="320" y="190" as="sourcePoint" />
            <mxPoint x="490" y="180" as="targetPoint" />
            <Array as="points">
              <mxPoint x="440" y="190" />
            </Array>
          </mxGeometry>
        </mxCell>
        <mxCell id="tgFyxtrxb2ASFe7bqLmh-55" value="" style="edgeStyle=elbowEdgeStyle;elbow=horizontal;strokeColor=#006EAF;endArrow=open;endFill=1;rounded=0;entryX=0;entryY=0.5;entryDx=0;entryDy=0;fillColor=#1ba1e2;" parent="1" target="8" edge="1">
          <mxGeometry width="100" height="100" relative="1" as="geometry">
            <mxPoint x="310" y="210" as="sourcePoint" />
            <mxPoint x="600" y="200" as="targetPoint" />
            <Array as="points">
              <mxPoint x="350" y="260" />
            </Array>
          </mxGeometry>
        </mxCell>
        <mxCell id="tgFyxtrxb2ASFe7bqLmh-59" value="" style="edgeStyle=elbowEdgeStyle;elbow=horizontal;strokeColor=#006EAF;endArrow=open;endFill=1;rounded=0;entryX=0;entryY=0.5;entryDx=0;entryDy=0;fillColor=#1ba1e2;" parent="1" target="10" edge="1">
          <mxGeometry width="100" height="100" relative="1" as="geometry">
            <mxPoint x="300" y="240" as="sourcePoint" />
            <mxPoint x="515.05" y="368.8499999999999" as="targetPoint" />
            <Array as="points">
              <mxPoint x="300" y="360" />
            </Array>
          </mxGeometry>
        </mxCell>
        <mxCell id="tgFyxtrxb2ASFe7bqLmh-62" value="" style="edgeStyle=orthogonalEdgeStyle;elbow=horizontal;strokeColor=#006EAF;endArrow=open;endFill=1;rounded=0;fillColor=#1ba1e2;entryX=0.5;entryY=1;entryDx=0;entryDy=0;" parent="1" target="tgFyxtrxb2ASFe7bqLmh-60" edge="1">
          <mxGeometry width="100" height="100" relative="1" as="geometry">
            <mxPoint x="280" y="240" as="sourcePoint" />
            <mxPoint x="780" y="450" as="targetPoint" />
            <Array as="points">
              <mxPoint x="280" y="240" />
              <mxPoint x="280" y="460" />
              <mxPoint x="775" y="460" />
            </Array>
          </mxGeometry>
        </mxCell>
        <mxCell id="tgFyxtrxb2ASFe7bqLmh-65" value="" style="edgeStyle=elbowEdgeStyle;elbow=horizontal;strokeColor=#006EAF;endArrow=open;endFill=1;rounded=0;entryX=0;entryY=0.5;entryDx=0;entryDy=0;fillColor=#1ba1e2;entryPerimeter=0;" parent="1" target="tgFyxtrxb2ASFe7bqLmh-63" edge="1">
          <mxGeometry width="100" height="100" relative="1" as="geometry">
            <mxPoint x="260" y="190" as="sourcePoint" />
            <mxPoint x="530" y="525" as="targetPoint" />
            <Array as="points">
              <mxPoint x="250" y="525" />
            </Array>
          </mxGeometry>
        </mxCell>
        <mxCell id="tgFyxtrxb2ASFe7bqLmh-66" value="&lt;b&gt;&lt;font color=&quot;#ccffcc&quot;&gt;Administrator&lt;/font&gt;&lt;/b&gt;" style="shape=umlActor;html=1;verticalLabelPosition=bottom;verticalAlign=top;align=center;" parent="1" vertex="1">
          <mxGeometry x="1033.75" y="400" width="30" height="60" as="geometry" />
        </mxCell>
        <mxCell id="tgFyxtrxb2ASFe7bqLmh-68" value="" style="edgeStyle=elbowEdgeStyle;elbow=horizontal;strokeColor=#2D7600;endArrow=open;endFill=1;rounded=0;entryX=1;entryY=0.5;entryDx=0;entryDy=0;fillColor=#60a917;" parent="1" source="tgFyxtrxb2ASFe7bqLmh-66" target="tgFyxtrxb2ASFe7bqLmh-63" edge="1">
          <mxGeometry width="100" height="100" relative="1" as="geometry">
            <mxPoint x="720" y="520" as="sourcePoint" />
            <mxPoint x="1010" y="520" as="targetPoint" />
            <Array as="points">
              <mxPoint x="860" y="520" />
            </Array>
          </mxGeometry>
        </mxCell>
        <mxCell id="tgFyxtrxb2ASFe7bqLmh-70" value="" style="edgeStyle=orthogonalEdgeStyle;elbow=horizontal;strokeColor=#2D7600;endArrow=open;endFill=1;rounded=0;entryX=1;entryY=0.5;entryDx=0;entryDy=0;fillColor=#60a917;" parent="1" target="tgFyxtrxb2ASFe7bqLmh-69" edge="1">
          <mxGeometry width="100" height="100" relative="1" as="geometry">
            <mxPoint x="1040" y="480" as="sourcePoint" />
            <mxPoint x="820" y="565" as="targetPoint" />
            <Array as="points">
              <mxPoint x="1040" y="510" />
              <mxPoint x="1010" y="510" />
              <mxPoint x="1010" y="565" />
            </Array>
          </mxGeometry>
        </mxCell>
        <mxCell id="tgFyxtrxb2ASFe7bqLmh-71" value="&lt;b&gt;&lt;font color=&quot;#ffe599&quot;&gt;Sevice e-mail&lt;/font&gt;&lt;/b&gt;" style="shape=umlActor;html=1;verticalLabelPosition=bottom;verticalAlign=top;align=center;" parent="1" vertex="1">
          <mxGeometry x="950" y="280" width="30" height="60" as="geometry" />
        </mxCell>
        <mxCell id="tgFyxtrxb2ASFe7bqLmh-83" value="" style="edgeStyle=elbowEdgeStyle;elbow=horizontal;strokeColor=#006EAF;endArrow=open;endFill=1;rounded=0;fillColor=#1ba1e2;entryX=0;entryY=0.5;entryDx=0;entryDy=0;" parent="1" target="tgFyxtrxb2ASFe7bqLmh-82" edge="1">
          <mxGeometry width="100" height="100" relative="1" as="geometry">
            <mxPoint x="260" y="160" as="sourcePoint" />
            <mxPoint x="510" y="600" as="targetPoint" />
            <Array as="points">
              <mxPoint x="230" y="495" />
            </Array>
          </mxGeometry>
        </mxCell>
      </root>
    </mxGraphModel>
  </diagram>
</mxfile>
